<svg width="500" height="107" viewBox="0 0 500 107" fill="none" xmlns="http://www.w3.org/2000/svg">
<path fill-rule="evenodd" clip-rule="evenodd" d="M382.562 12.5023V0L402.803 0C402.803 0.654328 402.805 1.30731 402.805 1.95958C402.808 3.26206 402.81 4.56181 402.803 5.86429C402.785 8.4575 402.77 11.0512 402.752 13.6451C402.712 20.3822 402.672 21.795 402.588 28.5302L402.581 29.1013C402.5 35.7527 402.419 42.4039 402.142 49.0491C401.998 52.4265 400.698 55.5689 399.154 58.5198C393.919 68.5101 385.855 74.4672 374.992 76.0322C360.784 78.0799 346.781 69.5495 341.563 55.631C334.19 35.9533 345.416 15.6077 364.355 11.2466C370.067 9.9351 375.742 10.3558 381.293 12.3044L381.401 12.3417L381.51 12.379C381.613 12.4155 381.719 12.4517 381.825 12.4869C381.931 12.5222 382.04 12.5564 382.146 12.589C382.178 12.6001 382.216 12.5889 382.304 12.5635C382.362 12.5465 382.443 12.5232 382.557 12.4961L382.562 12.5023ZM382.579 43.4075C383.225 37.5309 377.828 31.1591 370.998 31.2149C364.498 31.2643 359.192 36.6833 359.192 43.3702C359.192 50.1626 364.45 55.5568 371.008 55.6186C377.745 55.6866 383.225 49.352 382.579 43.4075ZM238.578 20.7812L238.579 20.7799L238.585 20.7919L238.578 20.7812ZM238.578 20.7812L235.633 25.3437C232.758 29.7979 229.89 34.2394 227.007 38.7011C222.837 29.7405 213.704 30.0339 209.134 33.9692C204.012 38.3778 203.444 46.7515 208.036 51.9145C212.333 56.7484 220.474 57.3533 225.468 50.9441C229.178 56.6884 232.877 62.4147 236.686 68.3144C236.607 68.3759 236.527 68.438 236.448 68.5C236.393 68.5433 236.338 68.5865 236.283 68.6297L236.178 68.7129C235.947 68.8959 235.718 69.0805 235.49 69.2645L235.488 69.2653C234.66 69.9315 233.836 70.5943 232.964 71.1776C218.738 80.6893 200.128 76.7 190.866 62.0373C185.082 52.8788 183.678 42.9001 187.237 32.6157C191.295 20.8937 199.28 13.2627 211.404 11.1185C221.909 9.25564 230.909 12.7117 238.388 20.4744C238.428 20.5197 238.459 20.5743 238.5 20.646C238.522 20.6855 238.547 20.7301 238.578 20.7812ZM39.9894 50.8975C37.2833 54.5406 32.8854 56.3298 28.8987 55.4858C22.4533 54.1262 18.4815 48.0225 19.7183 41.1222C20.5836 36.2887 23.4288 33.0301 28.0277 31.7423C32.5801 30.4666 36.4938 31.8921 39.5713 35.5638C40.0906 36.1847 40.5112 36.8936 40.9396 37.6158L40.9404 37.6169C41.1442 37.9605 41.3499 38.307 41.5689 38.6486C41.5977 38.6133 41.6282 38.578 41.659 38.5422L41.6981 38.4967C41.7142 38.4779 41.7304 38.4588 41.7465 38.4395L41.7543 38.43L41.7723 38.4076C41.8025 38.3695 41.8321 38.3301 41.8591 38.2892L43.2291 36.1646C46.4182 31.2188 49.6062 26.2748 52.8162 21.3443C53.1879 20.7693 52.979 20.4638 52.5957 20.0804C45.1341 12.5812 36.2382 9.33482 25.9257 11.1138C17.1924 12.6232 10.2652 17.3012 5.43399 25.046C1.32285 31.6347 -0.616601 38.7924 0.17311 46.6748C0.922182 54.096 3.62802 60.601 8.49983 66.1236C19.4628 78.5582 38.1371 79.7981 50.4936 68.9507C51.109 68.4055 51.1148 68.058 50.6912 67.4112C49.314 65.3231 47.9604 63.217 46.6072 61.1119L46.6046 61.1078L46.6034 61.1057L46.6021 61.1039L46.6009 61.1019L46.5996 61.0998L46.5983 61.098L46.5971 61.0962L46.5958 61.0942L46.5946 61.0921L46.593 61.0903C46.0337 60.2198 45.4743 59.3495 44.9134 58.4807C43.896 56.9121 42.8787 55.346 41.8457 53.7558L41.7912 53.6716L41.0418 52.5184L39.9894 50.8975ZM53.5394 49.5235C56.1506 65.1388 69.5772 76.4081 84.8844 76.3278H84.8904C85.0019 76.3278 85.1135 76.3283 85.2255 76.3288C85.3239 76.3296 85.4223 76.3303 85.5209 76.3311C86.0132 76.335 86.5078 76.3388 86.9985 76.3216C87.3548 76.3074 87.7073 76.2572 88.0623 76.2068C88.1718 76.1911 88.2833 76.1754 88.3938 76.1607C98.155 74.912 105.839 70.0903 111.349 61.714C116.295 54.197 117.78 45.9751 115.493 37.1538C113.475 29.377 109.391 22.911 103.228 17.9717C94.3049 10.8193 84.4534 8.54448 73.6496 12.7728C60.2886 18.0026 50.5989 31.9241 53.5394 49.5235ZM73.0148 43.3975C73.0746 36.6593 78.3925 31.2687 84.9202 31.3243V31.3181C91.6157 31.3737 96.5503 36.6717 96.4789 43.7249C96.4128 50.525 91.3041 55.761 84.7945 55.7054C78.1951 55.6498 72.9547 50.1727 73.0148 43.3975ZM158.781 76.3344H179.144L179.15 76.3283L179.156 76.2371L179.159 76.1625C179.163 76.1092 179.165 76.0575 179.169 76.0075V75.9998C179.182 75.7828 179.193 75.5941 179.193 75.4083C179.191 72.1294 179.195 68.8514 179.197 65.5736V65.4693V65.4667C179.206 57.1831 179.214 48.9006 179.144 40.6149C179.102 35.4925 177.889 30.5879 175.569 26.0186C169.979 15.0033 158.477 9.14123 146.211 10.9875C134.739 12.7218 125.349 21.2135 122.703 34.33C121.822 38.674 121.799 43.0759 121.777 47.4686L121.774 47.9067C121.739 54.5053 121.797 61.1039 121.856 67.7023V67.7201C121.879 70.3533 121.903 72.9864 121.92 75.6196C121.92 75.6974 121.925 75.7754 121.934 75.8526C121.939 75.9061 121.946 75.9597 121.954 76.0127L121.965 76.085V76.0873L121.965 76.093C121.971 76.1265 121.975 76.1597 121.979 76.1929L121.984 76.232L121.991 76.2752L121.992 76.2971L142.332 76.2971V74.9542V71.6774L142.331 66.9821V66.9787V66.8554V66.8542V66.8529V66.8516C142.33 58.9247 142.329 50.9989 142.338 43.0703C142.338 40.6275 142.617 38.2153 143.716 35.9962C145.142 33.0991 147.267 31.141 150.605 31.1598C153.852 31.1784 155.941 33.0991 157.355 35.9028C158.453 38.0848 158.775 40.4532 158.775 42.8651C158.781 53.4579 158.781 64.0507 158.781 74.6435V76.3344ZM237.717 43.0546C238.196 29.8437 244.161 20.1364 255.532 13.9759C259.584 11.7823 263.998 10.67 268.572 10.6515C275.284 10.6268 281.327 12.913 286.711 16.9727C293.753 22.2867 298.388 29.3183 300.42 38.0928C302.542 47.2501 300.503 55.5424 295.144 62.9943C289.853 70.3598 282.694 74.747 273.893 76.0137C259.627 78.0652 246.265 70.1065 240.439 56.9759C238.478 52.5642 237.621 47.9422 237.723 43.0608L237.717 43.0546ZM269.554 55.6598C276.172 55.6598 281.17 50.383 281.165 43.3882C281.165 36.5046 276.137 31.2896 269.506 31.2834C262.953 31.2834 257.702 36.684 257.69 43.4438C257.679 50.2532 262.93 55.6598 269.554 55.6598ZM332.315 10.9325V30.6628C327.496 32.4178 325.371 35.5504 325.27 41.3603C325.21 44.9458 325.22 48.5309 325.233 52.1143V52.1163V52.1186C325.238 53.5503 325.243 54.9815 325.243 56.4125L325.243 76.5499L305.789 76.5499C305.786 76.5203 305.784 76.491 305.779 76.4621L305.774 76.4225C305.769 76.3929 305.764 76.3635 305.761 76.3345L305.759 76.3309C305.746 76.25 305.736 76.1702 305.728 76.0922C305.723 76.0469 305.721 76.0019 305.721 75.9568C305.708 72.9439 305.691 69.7147 305.673 66.7007V66.6966V66.6928V66.6886V66.6845V66.6804V66.6709V66.6621C305.633 59.3183 305.59 51.973 305.597 44.6307C305.605 39.6473 305.824 34.6698 307.492 29.9081C311.027 19.8033 317.845 13.5859 328.112 11.4835C329.022 11.2979 329.951 11.1991 330.905 11.0977L330.91 11.0973C331.369 11.0484 331.836 10.9988 332.31 10.9385L332.315 10.9325ZM479.745 76.3344V74.3274L479.737 74.3336C479.624 74.3066 479.543 74.2834 479.485 74.2664C479.399 74.241 479.359 74.2299 479.326 74.241C479.076 74.3169 478.829 74.4021 478.579 74.4886L478.476 74.5249C472.925 76.4688 467.247 76.8884 461.537 75.58C442.596 71.2296 431.37 50.9338 438.746 31.3042C443.961 17.4198 457.965 8.91018 472.173 10.9528C483.035 12.514 491.102 18.4565 496.335 28.4223C497.881 31.366 499.181 34.5007 499.322 37.8702C499.6 44.4999 499.683 51.1356 499.764 57.7713L499.769 58.3386C499.824 62.869 499.862 63.4996 499.892 64.0276C499.925 64.5841 499.95 65.0266 499.986 69.8017C499.993 71.1186 499.991 72.7439 499.988 74.2631V74.267V74.2757V74.2837C499.986 75.0067 499.986 75.7053 499.986 76.3344L479.745 76.3344ZM468.178 55.6606C475.009 55.7162 480.406 49.36 479.762 43.4978C480.406 37.5677 474.928 31.2486 468.191 31.3166C461.631 31.3784 456.372 36.7592 456.372 43.5349C456.372 50.2056 461.679 55.6111 468.178 55.6606ZM429.924 76.3344H410.776V10.6513C421.351 10.6513 429.924 19.394 429.924 30.1788V76.3344ZM278.095 0C275.094 0 272.304 1.57655 270.714 4.17179L268.92 7.10087L279.856 7.10087C284.963 7.10087 289.711 4.41735 292.419 0L278.095 0Z" fill="#002481"/>
<path d="M311.74 83.973C315.59 83.973 318.553 84.9708 320.63 86.9664C322.728 88.962 323.777 91.7409 323.777 95.3029C323.777 98.865 322.728 101.633 320.63 103.607C318.553 105.581 315.59 106.568 311.74 106.568H305.348V83.973H311.74ZM311.74 105.345C315.179 105.345 317.796 104.466 319.592 102.706C321.387 100.925 322.285 98.4573 322.285 95.3029C322.285 92.1271 321.387 89.6487 319.592 87.8677C317.796 86.0867 315.179 85.1961 311.74 85.1961H306.808V105.345H311.74Z" fill="#002481"/>
<path d="M328.939 85.1961C328.593 85.1961 328.301 85.0889 328.063 84.8743C327.825 84.6382 327.706 84.3271 327.706 83.9408C327.706 83.5761 327.825 83.2756 328.063 83.0396C328.301 82.8036 328.593 82.6855 328.939 82.6855C329.285 82.6855 329.578 82.8036 329.815 83.0396C330.053 83.2756 330.172 83.5761 330.172 83.9408C330.172 84.3271 330.053 84.6382 329.815 84.8743C329.578 85.0889 329.285 85.1961 328.939 85.1961ZM329.653 89.0908V106.568H328.193V89.0908H329.653Z" fill="#002481"/>
<path d="M340.878 106.826C338.91 106.826 337.298 106.397 336.044 105.538C334.811 104.68 334.119 103.457 333.967 101.869H335.46C335.568 103.006 336.087 103.908 337.017 104.573C337.969 105.238 339.256 105.571 340.878 105.571C342.219 105.571 343.279 105.238 344.058 104.573C344.858 103.886 345.259 103.049 345.259 102.062C345.259 101.376 345.042 100.818 344.61 100.389C344.199 99.9379 343.68 99.5945 343.052 99.3585C342.425 99.1225 341.571 98.865 340.489 98.586C339.191 98.2427 338.142 97.9101 337.342 97.5882C336.541 97.2449 335.86 96.7406 335.298 96.0754C334.735 95.4102 334.454 94.5197 334.454 93.4039C334.454 92.5885 334.703 91.8374 335.2 91.1508C335.698 90.4427 336.39 89.8847 337.277 89.477C338.164 89.0693 339.17 88.8655 340.294 88.8655C342.133 88.8655 343.615 89.3268 344.739 90.2495C345.886 91.1508 346.502 92.4061 346.589 94.0154H345.129C345.064 92.8567 344.61 91.9125 343.766 91.183C342.922 90.4534 341.754 90.0886 340.262 90.0886C339.007 90.0886 337.969 90.4105 337.147 91.0542C336.325 91.698 335.914 92.4812 335.914 93.4039C335.914 94.2193 336.141 94.8845 336.595 95.3995C337.071 95.893 337.645 96.2793 338.315 96.5582C339.007 96.8157 339.916 97.0947 341.041 97.3951C342.274 97.717 343.258 98.0388 343.993 98.3607C344.75 98.6611 345.388 99.1117 345.908 99.7126C346.427 100.292 346.686 101.075 346.686 102.062C346.686 102.963 346.437 103.779 345.94 104.508C345.442 105.238 344.75 105.807 343.863 106.214C342.977 106.622 341.982 106.826 340.878 106.826Z" fill="#002481"/>
<path d="M353.308 90.3461V101.901C353.308 103.189 353.546 104.079 354.021 104.573C354.497 105.045 355.341 105.281 356.552 105.281H358.531V106.568H356.325C354.789 106.568 353.654 106.214 352.918 105.506C352.204 104.777 351.847 103.575 351.847 101.901V90.3461H349.187V89.0908H351.847V84.649H353.308V89.0908H358.531V90.3461H353.308Z" fill="#002481"/>
<path d="M363.842 92.6958C364.275 91.4083 365.043 90.4319 366.146 89.7667C367.249 89.0801 368.655 88.7367 370.364 88.7367V90.2495H369.877C368.147 90.2495 366.708 90.7431 365.562 91.7301C364.415 92.6958 363.842 94.2837 363.842 96.4939V106.568H362.382V89.0908H363.842V92.6958Z" fill="#002481"/>
<path d="M374.472 85.1961C374.126 85.1961 373.834 85.0889 373.596 84.8743C373.358 84.6382 373.239 84.3271 373.239 83.9408C373.239 83.5761 373.358 83.2756 373.596 83.0396C373.834 82.8036 374.126 82.6855 374.472 82.6855C374.818 82.6855 375.11 82.8036 375.348 83.0396C375.586 83.2756 375.705 83.5761 375.705 83.9408C375.705 84.3271 375.586 84.6382 375.348 84.8743C375.11 85.0889 374.818 85.1961 374.472 85.1961ZM375.186 89.0908V106.568H373.726V89.0908H375.186Z" fill="#002481"/>
<path d="M381.998 93.6936C382.539 92.2773 383.458 91.1186 384.756 90.2173C386.054 89.3161 387.622 88.8655 389.461 88.8655C391.105 88.8655 392.565 89.2303 393.841 89.9599C395.139 90.6894 396.145 91.7301 396.859 93.082C397.594 94.4339 397.962 96.011 397.962 97.8135C397.962 99.616 397.594 101.204 396.859 102.577C396.145 103.929 395.139 104.981 393.841 105.732C392.565 106.461 391.105 106.826 389.461 106.826C387.622 106.826 386.043 106.375 384.724 105.474C383.426 104.573 382.517 103.414 381.998 101.998V106.568H380.538V82.7499H381.998V93.6936ZM396.469 97.8135C396.469 96.2256 396.166 94.8523 395.561 93.6936C394.955 92.5348 394.101 91.655 392.997 91.0542C391.916 90.4319 390.661 90.1208 389.234 90.1208C387.871 90.1208 386.638 90.4427 385.535 91.0864C384.432 91.7087 383.566 92.6099 382.939 93.7901C382.312 94.9489 381.998 96.29 381.998 97.8135C381.998 99.3585 382.312 100.721 382.939 101.901C383.566 103.06 384.432 103.961 385.535 104.605C386.638 105.227 387.871 105.538 389.234 105.538C390.661 105.538 391.916 105.227 392.997 104.605C394.101 103.983 394.955 103.092 395.561 101.933C396.166 100.775 396.469 99.4014 396.469 97.8135Z" fill="#002481"/>
<path d="M417.262 89.0908V106.568H415.802V102.77C415.305 104.101 414.472 105.12 413.304 105.828C412.158 106.515 410.838 106.858 409.346 106.858C407.247 106.858 405.528 106.225 404.187 104.959C402.867 103.672 402.207 101.773 402.207 99.2619V89.0908H403.635V99.1654C403.635 101.247 404.165 102.845 405.225 103.961C406.285 105.056 407.723 105.603 409.54 105.603C411.444 105.603 412.958 105.002 414.083 103.8C415.229 102.599 415.802 100.818 415.802 98.4573V89.0908H417.262Z" fill="#002481"/>
<path d="M423.331 85.1961C422.985 85.1961 422.693 85.0889 422.455 84.8743C422.217 84.6382 422.099 84.3271 422.099 83.9408C422.099 83.5761 422.217 83.2756 422.455 83.0396C422.693 82.8036 422.985 82.6855 423.331 82.6855C423.678 82.6855 423.97 82.8036 424.208 83.0396C424.445 83.2756 424.564 83.5761 424.564 83.9408C424.564 84.3271 424.445 84.6382 424.208 84.8743C423.97 85.0889 423.678 85.1961 423.331 85.1961ZM424.045 89.0908V106.568H422.585V89.0908H424.045Z" fill="#002481"/>
<path d="M428.489 97.8135C428.489 96.011 428.846 94.4339 429.56 93.082C430.295 91.7301 431.301 90.6894 432.577 89.9599C433.875 89.2303 435.346 88.8655 436.99 88.8655C438.785 88.8655 440.343 89.3161 441.662 90.2173C442.982 91.0971 443.912 92.2451 444.453 93.6614V82.7499H445.913V106.568H444.453V101.933C443.934 103.371 443.025 104.551 441.727 105.474C440.429 106.375 438.85 106.826 436.99 106.826C435.346 106.826 433.875 106.461 432.577 105.732C431.301 104.981 430.295 103.929 429.56 102.577C428.846 101.204 428.489 99.616 428.489 97.8135ZM444.453 97.8135C444.453 96.29 444.128 94.9489 443.479 93.7901C442.852 92.6099 441.987 91.7087 440.884 91.0864C439.78 90.4427 438.548 90.1208 437.185 90.1208C435.757 90.1208 434.503 90.4319 433.421 91.0542C432.339 91.655 431.496 92.5348 430.89 93.6936C430.285 94.8523 429.982 96.2256 429.982 97.8135C429.982 99.4014 430.285 100.775 430.89 101.933C431.496 103.092 432.339 103.983 433.421 104.605C434.524 105.227 435.779 105.538 437.185 105.538C438.548 105.538 439.78 105.227 440.884 104.605C442.008 103.961 442.884 103.06 443.512 101.901C444.139 100.721 444.453 99.3585 444.453 97.8135Z" fill="#002481"/>
<path d="M458.984 106.826C457.34 106.826 455.858 106.461 454.539 105.732C453.219 105.002 452.181 103.961 451.424 102.609C450.688 101.236 450.321 99.6375 450.321 97.8135C450.321 96.011 450.699 94.4339 451.456 93.082C452.213 91.7087 453.252 90.668 454.571 89.9599C455.912 89.2303 457.405 88.8655 459.049 88.8655C460.693 88.8655 462.174 89.2303 463.494 89.9599C464.813 90.668 465.841 91.698 466.576 93.0498C467.333 94.4017 467.712 95.9896 467.712 97.8135C467.712 99.6375 467.333 101.236 466.576 102.609C465.819 103.961 464.77 105.002 463.429 105.732C462.11 106.461 460.628 106.826 458.984 106.826ZM458.984 105.538C460.26 105.538 461.45 105.259 462.553 104.702C463.678 104.122 464.575 103.253 465.246 102.094C465.917 100.936 466.252 99.5087 466.252 97.8135C466.252 96.1398 465.917 94.7236 465.246 93.5648C464.575 92.4061 463.689 91.5478 462.585 90.9898C461.482 90.4105 460.293 90.1208 459.016 90.1208C457.74 90.1208 456.55 90.4105 455.447 90.9898C454.366 91.5478 453.49 92.4061 452.819 93.5648C452.148 94.7236 451.813 96.1398 451.813 97.8135C451.813 99.5087 452.138 100.936 452.787 102.094C453.457 103.253 454.333 104.122 455.415 104.702C456.518 105.259 457.708 105.538 458.984 105.538Z" fill="#002481"/>
<path d="M473.602 92.6958C474.035 91.4083 474.802 90.4319 475.906 89.7667C477.009 89.0801 478.415 88.7367 480.124 88.7367V90.2495H479.637C477.906 90.2495 476.468 90.7431 475.322 91.7301C474.175 92.6958 473.602 94.2837 473.602 96.4939V106.568H472.142V89.0908H473.602V92.6958Z" fill="#002481"/>
<path d="M482.577 97.8135C482.577 96.011 482.934 94.4339 483.648 93.082C484.383 91.7301 485.389 90.6894 486.665 89.9599C487.963 89.2303 489.434 88.8655 491.078 88.8655C492.938 88.8655 494.517 89.3161 495.815 90.2173C497.113 91.1186 498.021 92.2666 498.54 93.6614V89.0908H500.001V106.568H498.54V101.966C498.021 103.382 497.102 104.551 495.782 105.474C494.485 106.375 492.916 106.826 491.078 106.826C489.434 106.826 487.963 106.461 486.665 105.732C485.389 104.981 484.383 103.929 483.648 102.577C482.934 101.204 482.577 99.616 482.577 97.8135ZM498.54 97.8135C498.54 96.29 498.216 94.9489 497.567 93.7901C496.94 92.6099 496.075 91.7087 494.971 91.0864C493.868 90.4427 492.635 90.1208 491.272 90.1208C489.845 90.1208 488.59 90.4319 487.509 91.0542C486.427 91.655 485.584 92.5348 484.978 93.6936C484.372 94.8523 484.069 96.2256 484.069 97.8135C484.069 99.4014 484.372 100.775 484.978 101.933C485.584 103.092 486.427 103.983 487.509 104.605C488.612 105.227 489.866 105.538 491.272 105.538C492.635 105.538 493.868 105.227 494.971 104.605C496.096 103.961 496.972 103.06 497.599 101.901C498.227 100.721 498.54 99.3585 498.54 97.8135Z" fill="#002481"/>
</svg>
