<?xml version="1.0" encoding="UTF-8"?>
<svg id="Capa_1" xmlns="http://www.w3.org/2000/svg" version="1.1" viewBox="0 0 512 512">
  <!-- Generator: Adobe Illustrator 29.5.0, SVG Export Plug-In . SVG Version: 2.1.0 Build 137)  -->
  <defs>
    <style>
      .st0 {
        fill: #fff;
      }
    </style>
  </defs>
  <circle class="st0" cx="256" cy="256" r="59"/>
  <path class="st0" d="M400.1,184.5c-.9-19.3-5.2-39-19.3-53.2s-33.9-18.5-53.2-19.3c-18.7-.8-24.3-1-71.5-1s-52.9.2-71.5,1c-19.3.9-39.1,5.2-53.2,19.3-13.9,13.9-18.5,34.1-19.3,53.2-.8,18.7-1,24.3-1,71.5s.2,52.9,1,71.5c.9,19.2,5.2,39.1,19.3,53.2,13.8,13.9,34.2,18.5,53.2,19.3,18.7.8,24.3,1,71.5,1s52.9-.2,71.5-1c19.4-.9,39-5.2,53.2-19.3,14-14,18.5-34,19.3-53.2.8-18.7,1-24.3,1-71.5s-.2-52.9-1-71.5ZM256,346.9c-50.2,0-90.9-40.7-90.9-90.9s40.7-90.9,90.9-90.9,90.9,40.7,90.9,90.9-40.7,90.9-90.9,90.9ZM350.5,182.8c-11.7,0-21.2-9.5-21.2-21.2s9.5-21.2,21.2-21.2,21.2,9.5,21.2,21.2-9.5,21.2-21.2,21.2Z"/>
  <path class="st0" d="M256,1.6C115.5,1.6,1.6,115.5,1.6,256s113.9,254.4,254.4,254.4,254.4-113.9,254.4-254.4S396.5,1.6,256,1.6ZM431.9,329c-1.3,27.4-8.8,54.5-28.7,74.3-19.8,19.8-47,27.4-74.3,28.7-18.9.8-24.9,1.1-73,1.1s-54.1-.2-73-1.1c-27.3-1.3-54.5-8.8-74.3-28.7-19.8-19.7-27.4-47-28.7-74.3-.8-18.9-1.1-24.9-1.1-73s.2-54.1,1.1-73c1.3-27.4,8.8-54.5,28.7-74.3,19.8-19.8,46.9-27.4,74.3-28.7,18.9-.8,24.9-1.1,73-1.1s54.1.2,73,1.1c27.3,1.2,54.5,8.8,74.3,28.7,19.8,19.8,27.4,46.9,28.7,74.3.8,18.9,1.1,24.9,1.1,73s-.2,54.1-1.1,73Z"/>
</svg>