<?xml version="1.0" encoding="UTF-8"?>
<svg id="Capa_40" xmlns="http://www.w3.org/2000/svg" version="1.1" viewBox="0 0 24 24">
  <!-- Generator: Adobe Illustrator 29.5.0, SVG Export Plug-In . SVG Version: 2.1.0 Build 137)  -->
  <defs>
    <style>
      .st0 {
        fill: #fff;
      }
    </style>
  </defs>
  <path class="st0" d="M12,0C5.4,0,0,5.4,0,12s5.4,12,12,12,12-5.4,12-12S18.6,0,12,0h0ZM12.2,18.9h0c-1.2,0-2.3-.3-3.4-.9l-3.7,1,1-3.6c-.6-1.1-.9-2.3-.9-3.5,0-3.9,3.1-7,7-7s3.6.7,5,2.1,2.1,3.1,2.1,5c0,3.9-3.1,7-7,7h0ZM12.2,6c-3.2,0-5.8,2.6-5.8,5.8,0,1.1.3,2.2.9,3.1v.2c.1,0-.4,2.2-.4,2.2l2.2-.6h.2c.9.7,1.9.9,3,.9h0c3.2,0,5.8-2.6,5.8-5.8,0-1.6-.6-3-1.7-4.1s-2.6-1.7-4.1-1.7h0ZM15.6,14.4c-.1.4-.8.8-1.2.8-.3,0-.7,0-1.1,0-.3,0-.6-.2-1-.4-1.8-.8-2.9-2.5-3-2.6,0-.1-.7-.9-.7-1.8s.5-1.3.6-1.5.4-.2.5-.2.2,0,.3,0c.1,0,.3,0,.4.3.1.4.5,1.2.5,1.3,0,0,0,.2,0,.3,0,.1,0,.2-.2.3,0,.1-.2.2-.3.3,0,0-.2.2,0,.4s.5.7,1,1.2c.7.6,1.2.8,1.4.9.2,0,.3,0,.4,0s.4-.5.6-.7c.1-.2.2-.1.4,0,.2,0,1,.5,1.2.6.2,0,.3.1.3.2,0,0,0,.4-.1.8h0Z"/>
</svg>